{
  "accessors": [
    {
      "bufferView": 2,
      "componentType": 5126,
      "count": 7913,
      "max": [
        16.17865562438965,
        16.184106826782227,
        63.31493377685547
      ],
      "min": [
        -16.17865562438965,
        -16.178569793701172,
        -0.052682001143693924
      ],
      "type": "VEC3"
    },
    {
      "bufferView": 2,
      "byteOffset": 94956,
      "componentType": 5126,
      "count": 7913,
      "max": [
        1.0,
        0.9999948740005493,
        0.9999996423721313
      ],
      "min": [
        -1.0,
        -0.9999955892562866,
        -0.9999966621398926
      ],
      "type": "VEC3"
    },
    {
      "bufferView": 1,
      "componentType": 5126,
      "count": 7913,
      "max": [
        0.9998350143432617,
        0.9980199933052063
      ],
      "min": [
        0.0003980000037699938,
        0.0003150000120513141
      ],
      "type": "VEC2"
    },
    {
      "bufferView": 0,
      "componentType": 5125,
      "count": 23169,
      "type": "SCALAR"
    },
    {
      "bufferView": 2,
      "byteOffset": 189912,
      "componentType": 5126,
      "count": 264,
      "max": [
        1.3284599781036377,
        1.5301740169525146,
        61.9510383605957
      ],
      "min": [
        -1.3284599781036377,
        -1.135830044746399,
        59.14908981323242
      ],
      "type": "VEC3"
    },
    {
      "bufferView": 2,
      "byteOffset": 193080,
      "componentType": 5126,
      "count": 264,
      "max": [
        1.0,
        0.9999946355819702,
        0.003299982286989689
      ],
      "min": [
        -1.0,
        -0.9999946355819702,
        -0.003299982286989689
      ],
      "type": "VEC3"
    },
    {
      "bufferView": 1,
      "byteOffset": 63304,
      "componentType": 5126,
      "count": 264,
      "max": [
        0.445156991481781,
        0.9968699812889099
      ],
      "min": [
        0.35793399810791016,
        0.8933150172233582
      ],
      "type": "VEC2"
    },
    {
      "bufferView": 0,
      "byteOffset": 92676,
      "componentType": 5125,
      "count": 576,
      "type": "SCALAR"
    },
    {
      "bufferView": 2,
      "byteOffset": 196248,
      "componentType": 5126,
      "count": 4,
      "max": [
        -2.7161309719085693,
        -13.118285179138184,
        33.86022186279297
      ],
      "min": [
        -8.704517364501953,
        -13.141655921936035,
        26.683300018310547
      ],
      "type": "VEC3"
    },
    {
      "bufferView": 2,
      "byteOffset": 196296,
      "componentType": 5126,
      "count": 4,
      "max": [
        0.0,
        -0.9999946355819702,
        0.003299982286989689
      ],
      "min": [
        0.0,
        -0.9999946355819702,
        0.003299982286989689
      ],
      "type": "VEC3"
    },
    {
      "bufferView": 1,
      "byteOffset": 65416,
      "componentType": 5126,
      "count": 4,
      "max": [
        0.9951130151748657,
        0.9920139908790588
      ],
      "min": [
        0.004358000122010708,
        0.00950700044631958
      ],
      "type": "VEC2"
    },
    {
      "bufferView": 0,
      "byteOffset": 94980,
      "componentType": 5125,
      "count": 6,
      "type": "SCALAR"
    },
    {
      "bufferView": 2,
      "byteOffset": 196344,
      "componentType": 5126,
      "count": 16,
      "max": [
        14.887853622436523,
        15.053123474121094,
        50.82734680175781
      ],
      "min": [
        -14.887853622436523,
        -14.731380462646484,
        47.97768783569336
      ],
      "type": "VEC3"
    },
    {
      "bufferView": 2,
      "byteOffset": 196536,
      "componentType": 5126,
      "count": 16,
      "max": [
        1.0,
        0.9999946355819702,
        0.003299982286989689
      ],
      "min": [
        -1.0,
        -0.9999946355819702,
        -0.003299982286989689
      ],
      "type": "VEC3"
    },
    {
      "bufferView": 1,
      "byteOffset": 65448,
      "componentType": 5126,
      "count": 16,
      "max": [
        0.9994320273399353,
        0.9283239841461182
      ],
      "min": [
        0.0005750000127591193,
        0.039524998515844345
      ],
      "type": "VEC2"
    },
    {
      "bufferView": 0,
      "byteOffset": 95004,
      "componentType": 5125,
      "count": 24,
      "type": "SCALAR"
    },
    {
      "bufferView": 2,
      "byteOffset": 196728,
      "componentType": 5126,
      "count": 192,
      "max": [
        13.149460792541504,
        13.282337188720703,
        45.15076446533203
      ],
      "min": [
        -13.149460792541504,
        -13.029658317565918,
        36.72444152832031
      ],
      "type": "VEC3"
    },
    {
      "bufferView": 2,
      "byteOffset": 199032,
      "componentType": 5126,
      "count": 192,
      "max": [
        1.0,
        0.9999946355819702,
        0.003299982286989689
      ],
      "min": [
        -1.0,
        -0.9999946355819702,
        -0.003299982286989689
      ],
      "type": "VEC3"
    },
    {
      "bufferView": 1,
      "byteOffset": 65576,
      "componentType": 5126,
      "count": 192,
      "max": [
        0.9785929918289185,
        0.9906920194625854
      ],
      "min": [
        0.016975000500679016,
        0.006316999904811382
      ],
      "type": "VEC2"
    },
    {
      "bufferView": 0,
      "byteOffset": 95100,
      "componentType": 5125,
      "count": 288,
      "type": "SCALAR"
    }
  ],
  "asset": {
    "extras": {
      "author": "igorviniciusfreitasouza (https://sketchfab.com/igorviniciusfreitasouza)",
      "license": "CC-BY-4.0 (http://creativecommons.org/licenses/by/4.0/)",
      "source": "https://sketchfab.com/3d-models/tardis-exterior-2005-81aa743ef64d44e69b5a48b77148820f",
      "title": "Tardis Exterior 2005"
    },
    "generator": "Sketchfab-13.93.0",
    "version": "2.0"
  },
  "bufferViews": [
    {
      "buffer": 0,
      "byteLength": 96252,
      "name": "floatBufferViews",
      "target": 34963
    },
    {
      "buffer": 0,
      "byteLength": 67112,
      "byteOffset": 96252,
      "byteStride": 8,
      "name": "floatBufferViews",
      "target": 34962
    },
    {
      "buffer": 0,
      "byteLength": 201336,
      "byteOffset": 163364,
      "byteStride": 12,
      "name": "floatBufferViews",
      "target": 34962
    }
  ],
  "buffers": [
    {
      "byteLength": 364700,
      "uri": "scene.bin"
    }
  ],
  "images": [
    {
      "uri": "textures/modelsdoctorwho1200coral2005_baseColor.png"
    },
    {
      "uri": "textures/modelsdoctorwho1200coraldoorsign_baseColor.png"
    },
    {
      "uri": "textures/modelsdoctorwho1200coralpoliceboxsign_baseColor.png"
    },
    {
      "uri": "textures/modelsdoctorwho1200coralwindows_baseColor.png"
    }
  ],
  "materials": [
    {
      "doubleSided": true,
      "name": "modelsdoctorwho1200coral2005",
      "pbrMetallicRoughness": {
        "baseColorTexture": {
          "index": 0
        },
        "metallicFactor": 0.0,
        "roughnessFactor": 0.8523704138131405
      }
    },
    {
      "alphaMode": "BLEND",
      "doubleSided": true,
      "name": "modelsdoctorwho1200coral2005_NONE",
      "pbrMetallicRoughness": {
        "baseColorFactor": [
          0.4096,
          0.4096,
          0.4096,
          0.36
        ],
        "metallicFactor": 0.0,
        "roughnessFactor": 0.8523704138131405
      }
    },
    {
      "doubleSided": true,
      "name": "modelsdoctorwho1200coraldoorsign",
      "pbrMetallicRoughness": {
        "baseColorTexture": {
          "index": 1
        },
        "metallicFactor": 0.0,
        "roughnessFactor": 0.8523704138131405
      }
    },
    {
      "doubleSided": true,
      "name": "modelsdoctorwho1200coralpoliceboxsign",
      "pbrMetallicRoughness": {
        "baseColorTexture": {
          "index": 2
        },
        "metallicFactor": 0.0,
        "roughnessFactor": 0.8523704138131405
      }
    },
    {
      "doubleSided": true,
      "name": "modelsdoctorwho1200coralwindows",
      "pbrMetallicRoughness": {
        "baseColorTexture": {
          "index": 3
        },
        "metallicFactor": 0.0,
        "roughnessFactor": 0.8523704138131405
      }
    }
  ],
  "meshes": [
    {
      "name": "Object_0",
      "primitives": [
        {
          "attributes": {
            "NORMAL": 1,
            "POSITION": 0,
            "TEXCOORD_0": 2
          },
          "indices": 3,
          "material": 0,
          "mode": 4
        }
      ]
    },
    {
      "name": "Object_1",
      "primitives": [
        {
          "attributes": {
            "NORMAL": 5,
            "POSITION": 4,
            "TEXCOORD_0": 6
          },
          "indices": 7,
          "material": 1,
          "mode": 4
        }
      ]
    },
    {
      "name": "Object_2",
      "primitives": [
        {
          "attributes": {
            "NORMAL": 9,
            "POSITION": 8,
            "TEXCOORD_0": 10
          },
          "indices": 11,
          "material": 2,
          "mode": 4
        }
      ]
    },
    {
      "name": "Object_3",
      "primitives": [
        {
          "attributes": {
            "NORMAL": 13,
            "POSITION": 12,
            "TEXCOORD_0": 14
          },
          "indices": 15,
          "material": 3,
          "mode": 4
        }
      ]
    },
    {
      "name": "Object_4",
      "primitives": [
        {
          "attributes": {
            "NORMAL": 17,
            "POSITION": 16,
            "TEXCOORD_0": 18
          },
          "indices": 19,
          "material": 4,
          "mode": 4
        }
      ]
    }
  ],
  "nodes": [
    {
      "children": [
        1
      ],
      "matrix": [
        1.0,
        0.0,
        0.0,
        0.0,
        0.0,
        2.220446049250313e-16,
        -1.0,
        0.0,
        0.0,
        1.0,
        2.220446049250313e-16,
        0.0,
        0.0,
        0.0,
        0.0,
        1.0
      ],
      "name": "Sketchfab_model"
    },
    {
      "children": [
        2,
        3,
        4,
        5,
        6
      ],
      "name": "tardis_2005.obj.cleaner.materialmerger.gles"
    },
    {
      "mesh": 0,
      "name": "Object_2"
    },
    {
      "mesh": 1,
      "name": "Object_3"
    },
    {
      "mesh": 2,
      "name": "Object_4"
    },
    {
      "mesh": 3,
      "name": "Object_5"
    },
    {
      "mesh": 4,
      "name": "Object_6"
    }
  ],
  "samplers": [
    {
      "magFilter": 9729,
      "minFilter": 9987,
      "wrapS": 10497,
      "wrapT": 10497
    }
  ],
  "scene": 0,
  "scenes": [
    {
      "name": "Sketchfab_Scene",
      "nodes": [
        0
      ]
    }
  ],
  "textures": [
    {
      "sampler": 0,
      "source": 0
    },
    {
      "sampler": 0,
      "source": 1
    },
    {
      "sampler": 0,
      "source": 2
    },
    {
      "sampler": 0,
      "source": 3
    }
  ]
}
